<svg width="24" height="24" viewBox="0 0 24 24" fill="none" xmlns="http://www.w3.org/2000/svg">
<path fill-rule="evenodd" clip-rule="evenodd" d="M4 0C1.79086 0 0 1.79086 0 4V20C0 22.2091 1.79086 24 4 24H20C22.2091 24 24 22.2091 24 20V4C24 1.79086 22.2091 0 20 0H4ZM20 5.5C20 6.32843 19.3284 7 18.5 7C17.6716 7 17 6.32843 17 5.5C17 4.67157 17.6716 4 18.5 4C19.3284 4 20 4.67157 20 5.5ZM18 12C18 15.3137 15.3137 18 12 18C8.68629 18 6 15.3137 6 12C6 8.68629 8.68629 6 12 6C15.3137 6 18 8.68629 18 12ZM7.91632 12C7.91632 14.2554 9.74465 16.0837 12 16.0837C14.2554 16.0837 16.0837 14.2554 16.0837 12C16.0837 9.74465 14.2554 7.91632 12 7.91632C9.74465 7.91632 7.91632 9.74465 7.91632 12Z" fill="#FFFFFE" fill-opacity="0.8"/>
</svg>
