<svg width="24" height="24" viewBox="0 0 24 24" fill="none" xmlns="http://www.w3.org/2000/svg">
<path d="M4.3448 0.204102C1.93797 0.204102 0 2.14207 0 4.54889V19.6542C0 22.061 1.93797 23.9989 4.3448 23.9989H12.5317V14.6966H10.0719V11.3475H12.5317V8.4862C12.5317 6.23818 13.9851 4.17412 17.3331 4.17412C18.6886 4.17412 19.691 4.30426 19.691 4.30426L19.6122 7.4318C19.6122 7.4318 18.5899 7.42214 17.4744 7.42214C16.267 7.42214 16.0734 7.97842 16.0734 8.90189V11.3475H19.7081L19.5497 14.6967H16.0734V23.999H19.4501C21.8569 23.999 23.7949 22.061 23.7949 19.6542V4.54892C23.7949 2.14209 21.8569 0.204125 19.4501 0.204125H4.34478L4.3448 0.204102Z" fill="white" fill-opacity="0.8"/>
</svg>
