<svg width="24" height="24" viewBox="0 0 24 24" fill="none" xmlns="http://www.w3.org/2000/svg">
<path fill-rule="evenodd" clip-rule="evenodd" d="M18.3651 5.63755C18.0947 5.36718 17.6564 5.36718 17.386 5.63755L12.0015 11.0221L6.61545 5.63608C6.34509 5.36572 5.90674 5.36572 5.63638 5.63608C5.36601 5.90645 5.36601 6.34479 5.63638 6.61516L11.0224 12.0012L5.63716 17.3864C5.3668 17.6568 5.3668 18.0951 5.63716 18.3655C5.90753 18.6358 6.34587 18.6358 6.61624 18.3655L12.0015 12.9802L17.3852 18.364C17.6556 18.6344 18.0939 18.6344 18.3643 18.364C18.6347 18.0936 18.6347 17.6553 18.3643 17.3849L12.9805 12.0012L18.3651 6.61662C18.6354 6.34626 18.6354 5.90791 18.3651 5.63755Z" fill="white"/>
</svg>
