<svg width="171" height="37" viewBox="0 0 171 37" fill="none" xmlns="http://www.w3.org/2000/svg">
<path d="M-0.000244141 10.4198V26.582H9.26463V23.0239H4.23258V20.2371H9.00535V16.6788H4.23258V13.9781H9.26463V10.4198H-0.000244141Z" fill="#192947"/>
<path d="M19.308 23.7737L18.1848 26.582H13.6931L19.9558 10.4194H24.5773L30.7104 26.582H26.197L25.1391 23.7737H19.308ZM22.2666 15.4137H22.2237L20.4744 20.5585H23.9945L22.2666 15.4137Z" fill="#192947"/>
<path d="M43.6589 14.5771C42.8813 13.9337 41.8877 13.5051 40.8513 13.5051C40.0741 13.5051 39.0374 13.9552 39.0374 14.8557C39.0374 15.7988 40.1823 16.1631 40.916 16.399L41.9959 16.7208C44.2636 17.3852 46.0128 18.5214 46.0128 21.1362C46.0128 22.7437 45.6241 24.3948 44.3285 25.4876C43.0542 26.5598 41.3483 27.0098 39.7068 27.0098C37.6551 27.0098 35.6469 26.3239 33.9839 25.1664L35.798 21.7796C36.8563 22.701 38.1087 23.4511 39.5557 23.4511C40.5491 23.4511 41.6074 22.9585 41.6074 21.8221C41.6074 20.6434 39.9442 20.2359 39.0374 19.9783C36.3812 19.2282 34.6321 18.5425 34.6321 15.4129C34.6321 12.1333 36.9857 9.98941 40.247 9.98941C41.8877 9.98941 43.8961 10.5043 45.3435 11.3189L43.6589 14.5771Z" fill="#192947"/>
<path d="M57.9222 26.582H53.6887V13.9781H50.1909V10.4198H61.421V13.9781H57.9222V26.582Z" fill="#192947"/>
<path d="M71.4788 13.9777V16.6784H76.2517V20.2367H71.4788V23.0235H76.5105V26.582H67.2463V10.4194H76.5105V13.9777H71.4788Z" fill="#192947"/>
<path d="M96.7584 26.582H91.4895L87.4942 20.3656H87.4507V26.582H83.2183V10.4198H89.5454C92.7636 10.4198 95.2036 11.9416 95.2036 15.3927C95.2036 17.6219 93.9513 19.551 91.6406 19.9585L96.7584 26.582ZM87.4507 17.6648H87.8612C89.2436 17.6648 90.7983 17.4077 90.7983 15.65C90.7983 13.8922 89.2436 13.635 87.8612 13.635H87.4507V17.6648Z" fill="#192947"/>
<path d="M101.356 10.4194H105.589L113.342 20.3009H113.386V10.4194H117.618V26.582H113.386L105.633 16.6784H105.589V26.582H101.356V10.4194Z" fill="#192947"/>
<path d="M155.838 31.8153C155.371 30.8209 154.931 29.8808 154.381 28.9946C153.296 27.2455 151.774 25.9454 149.856 25.1304C147.94 24.316 145.747 24.3515 143.627 24.3862C143.425 24.3896 143.224 24.3927 143.025 24.3956C140.66 24.4268 138.023 24.2361 136.689 21.5787C136.36 20.9229 136.144 20.2344 135.935 19.5685C135.633 18.6058 135.347 17.6964 134.766 17.0405C134.455 16.6897 134.091 16.4733 133.724 16.3443V23.8768C133.759 23.9404 133.796 24.0042 133.831 24.0671C134.379 25.0336 134.945 26.0327 135.625 26.668C137.405 28.3315 139.844 28.3301 142.397 28.1762C144.522 28.0471 148.079 27.8313 150.107 30.3481C151.529 32.113 151.847 34.7116 152.006 37H158.991C158.462 36.3884 157.92 35.6801 157.359 34.7654C156.77 33.8039 156.296 32.7931 155.838 31.8153Z" fill="#EFA20F"/>
<path d="M142.515 30.1017C139.765 30.2689 136.636 30.2632 134.292 28.0726C134.09 27.8839 133.902 27.6781 133.724 27.4629V30.7259C133.991 30.9798 134.269 31.2133 134.566 31.4149C135.676 32.1672 137.247 32.4308 139.237 32.1988C139.506 32.1672 139.798 32.1175 140.106 32.0643C141.518 31.8226 143.452 31.4908 144.819 32.9708C145.942 34.1857 145.729 35.7333 145.361 37H150.057C149.913 35.0223 149.634 32.8503 148.589 31.5536C147.299 29.9521 144.881 29.9585 142.515 30.1017Z" fill="#8AB4C5"/>
<path d="M143.387 34.275C142.781 33.6192 141.868 33.7205 140.437 33.9658C140.116 34.0211 139.785 34.0779 139.464 34.1154C137.131 34.3874 135.202 34.0688 133.724 33.1695V37H143.323C143.716 35.815 143.931 34.8625 143.387 34.275Z" fill="#C1DAE1"/>
<path d="M162.901 6.02996L162.597 6.07755C161.518 6.24518 160.5 6.40356 159.648 6.87649C158.775 7.36207 158.078 8.15356 157.737 9.04808C157.126 10.6538 157.623 12.6748 158.973 14.0778C159.817 14.9544 160.771 15.7034 161.781 16.496C162.484 17.0475 163.211 17.6176 163.898 18.2352C165.096 19.314 165.914 20.6248 166.705 21.8931C167.074 22.4843 167.422 23.0433 167.807 23.5807C168.598 24.6854 169.706 25.5058 171 25.9648V-0.00119019H168.535C168.367 1.45034 167.857 2.7698 167.03 3.86942C166.164 5.02028 164.814 5.72687 162.901 6.02996Z" fill="#192947"/>
<path d="M144.3 12.9806C144.067 12.6223 143.827 12.2518 143.61 11.8667C142.58 10.039 142.685 8.00031 142.769 6.36229L142.777 6.20072C142.812 5.56258 142.852 4.83907 142.522 4.54703C142.455 4.48701 142.369 4.46311 142.277 4.46311C142.083 4.46311 141.861 4.56989 141.72 4.68352C141.571 4.80397 141.439 4.95393 141.33 5.12896C140.993 5.66756 140.851 6.37154 140.701 7.11689C140.654 7.35014 140.607 7.58159 140.555 7.8076L140.503 8.03202C140.23 9.20713 139.973 10.317 139.892 11.4494C139.83 12.3144 139.902 13.0818 140.108 13.73C140.301 14.34 140.679 14.9093 141.232 15.4226L141.233 15.4228C141.725 15.8795 142.315 16.2567 142.986 16.5439C143.837 16.9081 144.944 17.2011 145.386 16.528C145.526 16.3153 145.571 16.0521 145.533 15.6747C145.439 14.7353 144.886 13.883 144.3 12.9806Z" fill="#192947"/>
<path d="M166.222 24.6995C165.801 24.1113 165.42 23.5001 165.052 22.9089C164.298 21.7018 163.588 20.5619 162.593 19.6654C161.954 19.0917 161.285 18.5668 160.576 18.0107C159.558 17.2117 158.505 16.3853 157.567 15.4115C155.682 13.453 155.035 10.6874 155.919 8.36643C156.419 7.0538 157.432 5.89756 158.698 5.19378C159.854 4.55142 161.096 4.35851 162.296 4.17202L162.595 4.12526C163.983 3.90526 164.924 3.44415 165.472 2.71566C166.05 1.94786 166.418 1.02347 166.57 -0.000499725H158.591C158.244 0.752655 157.785 1.437 157.221 2.02032C156.452 2.81484 155.573 3.30684 154.722 3.78259C154.444 3.93835 154.156 4.09956 153.882 4.26637C151.951 5.44451 150.757 7.31882 150.608 9.40829C150.522 10.6143 150.742 11.9113 151.263 13.2636C151.988 15.147 153.684 16.4925 155.406 17.666L155.429 17.6817C157.465 19.0694 159.572 20.5035 161.239 22.4739C162.159 23.5619 162.766 24.8042 163.352 26.0063C163.807 26.9377 164.236 27.8173 164.793 28.6065C166.118 30.4827 168.306 31.813 171 32.4004V27.9876C169.053 27.46 167.379 26.3148 166.222 24.6995Z" fill="#192947"/>
<path d="M147.015 17.5826C146.649 18.1389 145.908 18.8657 144.537 18.8662C143.905 18.8662 143.14 18.7124 142.216 18.3167C141.338 17.9412 140.561 17.4419 139.904 16.8328C139.104 16.0898 138.548 15.241 138.254 14.3102C137.974 13.4294 137.873 12.4213 137.952 11.3134C138.045 10.0313 138.331 8.79532 138.608 7.60011L138.66 7.37673C138.708 7.16835 138.751 6.95477 138.794 6.73935C138.964 5.89889 139.156 4.9466 139.679 4.11091C139.902 3.75438 140.176 3.44389 140.492 3.18833C141.527 2.35167 142.925 2.31852 143.817 3.10842C144.844 4.01857 144.768 5.39502 144.719 6.30619L144.71 6.46092C144.635 7.92474 144.55 9.58321 145.307 10.926C145.494 11.2582 145.707 11.5876 145.934 11.9363C146.588 12.9424 147.327 14.0822 147.468 15.4849C147.55 16.3067 147.402 16.9931 147.015 17.5826ZM163.201 29.7138C162.555 28.7982 162.071 27.8066 161.603 26.8477C161.043 25.7018 160.515 24.6189 159.75 23.7152C158.254 21.946 156.347 20.6479 154.329 19.2728L154.306 19.2572C152.324 17.907 150.363 16.3298 149.448 13.9531C148.825 12.336 148.563 10.7607 148.669 9.2721C148.863 6.5543 150.392 4.1306 152.865 2.62284C153.169 2.43697 153.473 2.26651 153.768 2.10192C154.529 1.67616 155.248 1.27368 155.819 0.683739C156.022 0.473969 156.205 0.2439 156.372 -0.000198364H133.724V14.3471C134.711 14.546 135.573 15.03 136.225 15.7662C137.08 16.7305 137.441 17.8815 137.79 18.9946C137.986 19.6151 138.17 20.2012 138.429 20.7182C139.187 22.2277 140.622 22.4997 142.999 22.4662C143.198 22.4636 143.396 22.4599 143.595 22.4572C145.92 22.4204 148.324 22.3799 150.621 23.3565C152.916 24.3314 154.738 25.8881 156.037 27.9828C156.645 28.965 157.131 30.0003 157.601 31.0013C158.057 31.9739 158.487 32.8923 159.02 33.7631C159.905 35.2064 160.729 36.0609 161.602 36.9659C161.613 36.9769 161.623 36.9884 161.635 37H171V34.3689C167.638 33.7306 164.878 32.0885 163.201 29.7138Z" fill="#8AB4C5"/>
</svg>