<svg width="171" height="33" viewBox="0 0 171 33" fill="none" xmlns="http://www.w3.org/2000/svg">
<path d="M9.7673 12.2286H4.46245V15.0779H9.47132V18.8317H4.46245V21.7714H9.7673V25.5251H0V8.47488H9.7673V12.2286Z" fill="white"/>
<path d="M25.4025 19.1935L23.3989 13.5176L21.3954 19.1935H25.4025ZM26.5864 22.5628H20.2115L19.1869 25.5251H14.4285L20.9628 8.47488H25.8351L32.3694 25.5251H27.6109L26.5864 22.5628Z" fill="white"/>
<path d="M46.8308 12.8392C46.3451 12.4472 45.8593 12.1608 45.3736 11.9799C44.8879 11.7839 44.4174 11.6859 43.962 11.6859C43.3853 11.6859 42.9147 11.8216 42.5505 12.093C42.1862 12.3643 42.004 12.7186 42.004 13.1558C42.004 13.4573 42.0951 13.706 42.2772 13.902C42.4594 14.098 42.6946 14.2714 42.983 14.4221C43.2866 14.5578 43.6205 14.6784 43.9848 14.7839C44.3643 14.8894 44.7361 15.0025 45.1004 15.1231C46.5575 15.6055 47.62 16.2538 48.2879 17.0678C48.9709 17.8668 49.3124 18.9146 49.3124 20.2111C49.3124 21.0854 49.1606 21.8769 48.8571 22.5854C48.5687 23.294 48.1361 23.9045 47.5593 24.4171C46.9977 24.9146 46.2995 25.299 45.4647 25.5704C44.6451 25.8568 43.7116 26 42.6643 26C40.4938 26 38.4826 25.3593 36.6309 24.0779L38.5434 20.505C39.2112 21.093 39.8715 21.5302 40.5241 21.8166C41.1768 22.103 41.8219 22.2462 42.4594 22.2462C43.1879 22.2462 43.7268 22.0804 44.0759 21.7487C44.4402 21.4171 44.6223 21.0402 44.6223 20.6181C44.6223 20.3618 44.5768 20.1432 44.4857 19.9623C44.3946 19.7663 44.2428 19.593 44.0303 19.4422C43.8178 19.2764 43.537 19.1256 43.1879 18.99C42.854 18.8543 42.4442 18.7035 41.9585 18.5377C41.3817 18.3568 40.8125 18.1608 40.2509 17.9497C39.7045 17.7236 39.2112 17.4296 38.771 17.0678C38.346 16.706 37.9969 16.2538 37.7237 15.7111C37.4657 15.1533 37.3367 14.4523 37.3367 13.608C37.3367 12.7638 37.4733 12.0025 37.7465 11.3241C38.0349 10.6307 38.4295 10.0427 38.9304 9.5603C39.4465 9.06281 40.0688 8.67839 40.7973 8.40704C41.5411 8.13568 42.3683 8 43.279 8C44.129 8 45.0169 8.1206 45.9428 8.36181C46.8687 8.58794 47.7566 8.92714 48.6066 9.3794L46.8308 12.8392Z" fill="white"/>
<path d="M61.8297 12.2286V25.5251H57.3672V12.2286H53.7017V8.47488H65.4953V12.2286H61.8297Z" fill="white"/>
<path d="M80.3306 12.2286H75.0257V15.0779H80.0346V18.8317H75.0257V21.7714H80.3306V25.5251H70.5633V8.47488H80.3306V12.2286Z" fill="white"/>
<path d="M91.0935 16.0955H91.9359C92.8162 16.0955 93.4917 15.9146 93.9622 15.5528C94.4327 15.191 94.668 14.6709 94.668 13.9925C94.668 13.3141 94.4327 12.794 93.9622 12.4322C93.4917 12.0704 92.8162 11.8894 91.9359 11.8894H91.0935V16.0955ZM100.906 25.5251H95.351L91.0935 18.9673V25.5251H86.631V8.47488H93.5751C94.5314 8.47488 95.3662 8.61809 96.0796 8.90452C96.7929 9.17588 97.3773 9.55276 97.8327 10.0352C98.3032 10.5176 98.6523 11.0754 98.88 11.7085C99.1228 12.3417 99.2443 13.0201 99.2443 13.7437C99.2443 15.0402 98.9255 16.0955 98.288 16.9095C97.6657 17.7085 96.7398 18.2513 95.5104 18.5377L100.906 25.5251Z" fill="white"/>
<path d="M105.856 25.5251V8.47488H110.318L118.56 18.8995V8.47488H123V25.5251H118.56L110.318 15.1005V25.5251H105.856Z" fill="white"/>
<g clip-path="url(#clip0)">
<path d="M157.578 28.3764C157.165 27.4887 156.775 26.6508 156.288 25.86C155.328 24.3001 153.98 23.1408 152.282 22.4136C150.586 21.6874 148.645 21.7193 146.767 21.7503C146.589 21.7531 146.411 21.756 146.234 21.7583C144.141 21.7862 141.806 21.6161 140.626 19.2461C140.334 18.6613 140.143 18.0471 139.958 17.4532C139.69 16.5945 139.437 15.7835 138.923 15.1984C138.648 14.8856 138.326 14.6926 138 14.5775V21.2959C138.032 21.3524 138.064 21.4093 138.096 21.4656C138.58 22.3276 139.082 23.2187 139.683 23.7853C141.259 25.2692 143.419 25.2674 145.678 25.1299C147.56 25.015 150.709 24.8225 152.504 27.0676C153.763 28.6414 154.045 30.9593 154.185 33H160.369C159.9 32.4543 159.42 31.8232 158.924 31.0068C158.403 30.1492 157.983 29.2478 157.578 28.3764Z" fill="white"/>
<path d="M145.783 26.8478C143.349 26.9969 140.578 26.9915 138.504 25.0382C138.325 24.8694 138.158 24.6859 138 24.4943V27.4046C138.237 27.631 138.483 27.8393 138.746 28.0187C139.729 28.6897 141.12 28.9246 142.881 28.7183C143.119 28.6901 143.377 28.6458 143.65 28.5984C144.9 28.3827 146.612 28.0863 147.823 29.4062C148.817 30.4903 148.628 31.8703 148.302 33H152.459C152.333 31.2365 152.085 29.2993 151.16 28.1422C150.018 26.7144 147.878 26.7198 145.783 26.8478Z" fill="white"/>
<path d="M146.555 30.5696C146.018 29.9845 145.21 30.0754 143.943 30.2942C143.66 30.3431 143.366 30.3941 143.082 30.4272C141.017 30.6698 139.309 30.3855 138 29.584V33H146.499C146.846 31.9431 147.036 31.0942 146.555 30.5696Z" fill="white"/>
<path d="M163.83 5.37863L163.561 5.42107C162.605 5.57058 161.703 5.71184 160.949 6.13364C160.176 6.56672 159.56 7.27251 159.258 8.07047C158.717 9.50257 159.156 11.3051 160.352 12.5564C161.099 13.3382 161.944 14.0064 162.838 14.7132C163.46 15.2051 164.104 15.7135 164.712 16.2644C165.773 17.2265 166.497 18.3958 167.197 19.5268C167.523 20.0543 167.831 20.5523 168.172 21.0322C168.873 22.0174 169.854 22.7488 170.999 23.1582V-0.000507355H168.817C168.668 1.2941 168.217 2.47073 167.485 3.45166C166.718 4.4781 165.523 5.1083 163.83 5.37863Z" fill="white"/>
<path d="M147.362 11.5787C147.156 11.2591 146.943 10.9286 146.751 10.5852C145.84 8.95506 145.932 7.13676 146.007 5.67582L146.014 5.53172C146.045 4.96256 146.08 4.31728 145.788 4.05681C145.729 4.00364 145.653 3.98178 145.571 3.98178C145.399 3.98178 145.203 4.0772 145.078 4.17854C144.946 4.28597 144.83 4.41953 144.733 4.57582C144.434 5.0562 144.308 5.68407 144.176 6.34884C144.134 6.55688 144.092 6.76331 144.046 6.96488L144 7.16504C143.759 8.21311 143.531 9.20302 143.459 10.213C143.404 10.9844 143.469 11.6689 143.651 12.247C143.822 12.7911 144.157 13.2988 144.646 13.7566V13.7568C145.082 14.1641 145.604 14.5005 146.199 14.7567C146.952 15.0815 147.932 15.3429 148.324 14.7426C148.447 14.5528 148.487 14.3181 148.454 13.9815C148.371 13.1436 147.881 12.3834 147.362 11.5787Z" fill="white"/>
<path d="M166.77 22.0287C166.398 21.5043 166.06 20.9592 165.734 20.4321C165.067 19.3553 164.438 18.3386 163.557 17.5394C162.992 17.0273 162.399 16.5592 161.772 16.0632C160.87 15.3507 159.938 14.6136 159.108 13.7451C157.439 11.9982 156.866 9.5316 157.649 7.46159C158.092 6.29086 158.988 5.25962 160.109 4.63193C161.133 4.05901 162.232 3.88696 163.295 3.72062L163.559 3.67892C164.788 3.4827 165.621 3.07144 166.106 2.42171C166.618 1.73691 166.943 0.912462 167.078 -0.000812531H160.014C159.708 0.670921 159.301 1.28128 158.802 1.80154C158.121 2.51017 157.342 2.94897 156.59 3.3733C156.343 3.51222 156.088 3.656 155.846 3.80478C154.136 4.85555 153.079 6.52723 152.947 8.39081C152.871 9.46648 153.066 10.6232 153.527 11.8294C154.17 13.5091 155.67 14.7092 157.195 15.7558L157.215 15.7698C159.018 17.0075 160.883 18.2869 162.359 20.0439C163.173 21.0143 163.71 22.1227 164.23 23.1946C164.632 24.0253 165.012 24.8101 165.505 25.5131C166.678 27.1868 168.615 28.3732 171 28.8975V24.9613C169.276 24.4908 167.795 23.47 166.77 22.0287Z" fill="white"/>
<path d="M149.766 15.682C149.443 16.1781 148.787 16.8264 147.573 16.8267C147.014 16.8267 146.336 16.6896 145.519 16.3367C144.742 16.0017 144.053 15.5565 143.472 15.0133C142.763 14.3505 142.271 13.5935 142.011 12.7633C141.763 11.9777 141.673 11.0786 141.744 10.0905C141.825 8.94699 142.079 7.84465 142.324 6.77866L142.37 6.57942C142.413 6.39357 142.451 6.20308 142.489 6.01081C142.639 5.26135 142.809 4.41201 143.273 3.66667C143.47 3.34854 143.713 3.07175 143.993 2.84364C144.909 2.09761 146.147 2.06804 146.936 2.77255C147.845 3.5843 147.778 4.81195 147.734 5.62462L147.726 5.76262C147.66 7.06819 147.585 8.54737 148.254 9.74495C148.42 10.0413 148.61 10.3351 148.81 10.646C149.388 11.5434 150.043 12.5599 150.168 13.8111C150.24 14.544 150.109 15.1562 149.766 15.682ZM164.096 26.5019C163.524 25.6849 163.096 24.801 162.681 23.9456C162.186 22.9233 161.718 21.9579 161.041 21.1514C159.716 19.5737 158.028 18.4159 156.242 17.1897L156.222 17.1759C154.467 15.9713 152.731 14.5646 151.92 12.4448C151.369 11.0025 151.137 9.59759 151.231 8.26989C151.403 5.84591 152.757 3.68422 154.945 2.33947C155.215 2.17369 155.484 2.02166 155.745 1.87486C156.419 1.49513 157.055 1.13616 157.561 0.609997C157.741 0.422905 157.903 0.217709 158.05 0H138V12.7963C138.875 12.9735 139.637 13.4053 140.215 14.0619C140.971 14.922 141.291 15.9486 141.601 16.9413C141.773 17.4945 141.936 18.0175 142.166 18.4787C142.837 19.8247 144.107 20.0673 146.212 20.0376C146.387 20.0353 146.563 20.0324 146.739 20.0295C148.797 19.9966 150.925 19.9608 152.959 20.8316C154.991 21.7012 156.603 23.0895 157.754 24.958C158.293 25.8335 158.722 26.7574 159.138 27.6504C159.542 28.5173 159.923 29.3369 160.395 30.113C161.178 31.4007 161.907 32.1625 162.68 32.9696C162.69 32.9794 162.699 32.9902 162.709 33H171V30.6537C168.024 30.0839 165.58 28.6199 164.096 26.5019Z" fill="white"/>
</g>
<defs>
<clipPath id="clip0">
<rect width="33" height="33" fill="white" transform="translate(138)"/>
</clipPath>
</defs>
</svg>
