<svg width="18" height="18" viewBox="0 0 18 18" fill="none" xmlns="http://www.w3.org/2000/svg">
<path fill-rule="evenodd" clip-rule="evenodd" d="M18 9.00061C18 8.61826 17.69 8.30831 17.3077 8.30831L9.69279 8.30831L9.69279 0.691332C9.69279 0.308981 9.38283 -0.000976939 9.00048 -0.000976956C8.61813 -0.000976973 8.30817 0.30898 8.30817 0.691331L8.30817 8.30831L0.692308 8.30831C0.309957 8.30831 -3.76759e-07 8.61826 -3.93472e-07 9.00061C-4.10185e-07 9.38296 0.309957 9.69292 0.692308 9.69292L8.30817 9.69292L8.30817 17.3067C8.30817 17.6891 8.61813 17.999 9.00048 17.999C9.38283 17.999 9.69278 17.6891 9.69278 17.3067L9.69278 9.69292L17.3077 9.69292C17.69 9.69292 18 9.38297 18 9.00061Z" fill="#FFFFFE"/>
</svg>
