<svg width="24" height="24" viewBox="0 0 24 24" fill="none" xmlns="http://www.w3.org/2000/svg">
<path d="M20.3657 11.4338L11.511 3.74863C11.4431 3.69004 11.3563 3.65723 11.2649 3.65723H9.19072C9.01729 3.65723 8.9376 3.87285 9.06885 3.98535L17.2767 11.1104H3.56104C3.45791 11.1104 3.37354 11.1947 3.37354 11.2979L3.37354 12.7041C3.37354 12.8072 3.45791 12.8916 3.56104 12.8916H17.2743L9.06651 20.0166C8.93526 20.1314 9.01494 20.3447 9.18838 20.3447H11.3329C11.3774 20.3447 11.422 20.3283 11.4548 20.2979L20.3657 12.5682C20.4469 12.4976 20.5119 12.4105 20.5565 12.3126C20.6011 12.2148 20.6241 12.1085 20.6241 12.001C20.6241 11.8935 20.6011 11.7872 20.5565 11.6893C20.5119 11.5915 20.4469 11.5043 20.3657 11.4338Z" fill="#F7A637"/>
</svg>
<svg width="24" height="24" viewBox="0 0 24 24" fill="none" xmlns="http://www.w3.org/2000/svg">
<path d="M20.3657 11.4338L11.511 3.74863C11.4431 3.69004 11.3563 3.65723 11.2649 3.65723H9.19072C9.01729 3.65723 8.9376 3.87285 9.06885 3.98535L17.2767 11.1104H3.56104C3.45791 11.1104 3.37354 11.1947 3.37354 11.2979L3.37354 12.7041C3.37354 12.8072 3.45791 12.8916 3.56104 12.8916H17.2743L9.06651 20.0166C8.93526 20.1314 9.01494 20.3447 9.18838 20.3447H11.3329C11.3774 20.3447 11.422 20.3283 11.4548 20.2979L20.3657 12.5682C20.4469 12.4976 20.5119 12.4105 20.5565 12.3126C20.6011 12.2148 20.6241 12.1085 20.6241 12.001C20.6241 11.8935 20.6011 11.7872 20.5565 11.6893C20.5119 11.5915 20.4469 11.5043 20.3657 11.4338Z" fill="#F7A637"/>
</svg>
