<svg width="24" height="24" viewBox="0 0 24 24" fill="none" xmlns="http://www.w3.org/2000/svg">
<g clip-path="url(#clip0)">
<path fill-rule="evenodd" clip-rule="evenodd" d="M17.8735 4.23396C21.6399 8.0004 21.6399 14.107 17.8735 17.8735C14.107 21.6399 8.00041 21.6399 4.23396 17.8735C0.46752 14.107 0.46752 8.0004 4.23396 4.23396C8.00041 0.467515 14.107 0.467515 17.8735 4.23396ZM18.9265 18.2183C22.7342 14.0408 22.6189 7.56513 18.5806 3.52685C14.4236 -0.630116 7.68383 -0.630115 3.52686 3.52685C-0.630111 7.68382 -0.630111 14.4236 3.52686 18.5806C7.56549 22.6192 14.042 22.7342 18.2194 18.9255L23.0338 23.7398C23.229 23.9351 23.5456 23.9351 23.7409 23.7398C23.9361 23.5446 23.9361 23.228 23.7409 23.0327L18.9265 18.2183Z" fill="#FFFFFE"/>
</g>
<defs>
<clipPath id="clip0">
<rect width="24" height="24" fill="white"/>
</clipPath>
</defs>
</svg>
